<svg width="50px" xmlns="http://www.w3.org/2000/svg" xmlns:xlink="http://www.w3.org/1999/xlink"
viewBox="0 0 800 800">
<g shape-rendering="crispEdges">
    <g transform="translate(-50 -75)">
        <use xlink:href="#a" x="187.5" y="600" fill="hsl(286, 100%, 51%)"></use>
        <use xlink:href="#b" x="187.5" y="600" fill="hsl(299.11,100%,67.54%)"></use>
        <use xlink:href="#c" x="187.5" y="600" fill="hsl(282.13,100%,39.73%)"></use>
    </g>
    <g transform="translate(-50 -75)">
        <use xlink:href="#a" x="187.5" y="525" fill="hsl(286, 100%, 51%)"></use>
        <use xlink:href="#b" x="187.5" y="525" fill="hsl(299.11,100%,67.54%)"></use>
        <use xlink:href="#c" x="187.5" y="525" fill="hsl(282.13,100%,39.73%)"></use>
    </g>
    <g transform="translate(-50 -75)">
        <use xlink:href="#a" x="187.5" y="450" fill="hsl(286, 100%, 51%)"></use>
        <use xlink:href="#b" x="187.5" y="450" fill="hsl(299.11,100%,67.54%)"></use>
        <use xlink:href="#c" x="187.5" y="450" fill="hsl(282.13,100%,39.73%)"></use>
    </g>
    <g transform="translate(-50 -75)">
        <use xlink:href="#a" x="187.5" y="375" fill="hsl(286, 100%, 51%)"></use>
        <use xlink:href="#b" x="187.5" y="375" fill="hsl(299.11,100%,67.54%)"></use>
        <use xlink:href="#c" x="187.5" y="375" fill="hsl(282.13,100%,39.73%)"></use>
    </g>
    <g transform="translate(-50 -75)">
        <use xlink:href="#a" x="187.5" y="300" fill="hsl(286, 100%, 51%)"></use>
        <use xlink:href="#b" x="187.5" y="300" fill="hsl(299.11,100%,67.54%)"></use>
        <use xlink:href="#c" x="187.5" y="300" fill="hsl(282.13,100%,39.73%)"></use>
    </g>
    <g transform="translate(-50 -75)">
        <use xlink:href="#b" x="187.5" y="225" fill="hsl(299.11,100%,67.54%)"></use>
        <use xlink:href="#c" x="187.5" y="225" fill="hsl(282.13,100%,39.73%)"></use>
    </g>
    <g transform="translate(-50 -75)">
        <use xlink:href="#b" x="187.5" y="150" fill="hsl(299.11,100%,67.54%)"></use>
        <use xlink:href="#c" x="187.5" y="150" fill="hsl(282.13,100%,39.73%)"></use>
    </g>
    <g transform="translate(-50 -75)">
        <use xlink:href="#a" x="187.5" y="75" fill="hsl(286, 100%, 51%)"></use>
        <use xlink:href="#b" x="187.5" y="75" fill="hsl(299.11,100%,67.54%)"></use>
        <use xlink:href="#c" x="187.5" y="75" fill="hsl(282.13,100%,39.73%)"></use>
    </g>
    <g transform="translate(-50 -75)">
        <use xlink:href="#a" x="262.5" y="112.5" fill="hsl(286, 100%, 51%)"></use>
        <use xlink:href="#b" x="262.5" y="112.5" fill="hsl(299.11,100%,67.54%)"></use>
        <use xlink:href="#c" x="262.5" y="112.5" fill="hsl(282.13,100%,39.73%)"></use>
    </g>
    <g transform="translate(-50 -75)">
        <use xlink:href="#a" x="337.5" y="150" fill="hsl(286, 100%, 51%)"></use>
        <use xlink:href="#b" x="337.5" y="150" fill="hsl(299.11,100%,67.54%)"></use>
        <use xlink:href="#c" x="337.5" y="150" fill="hsl(282.13,100%,39.73%)"></use>
    </g>
    <g transform="translate(-50 -75)">
        <use xlink:href="#a" x="262.5" y="337.5" fill="hsl(286, 100%, 51%)"></use>
        <use xlink:href="#b" x="262.5" y="337.5" fill="hsl(299.11,100%,67.54%)"></use>
        <use xlink:href="#c" x="262.5" y="337.5" fill="hsl(282.13,100%,39.73%)"></use>
    </g>
    <g transform="translate(100 -50)">
        <use xlink:href="#d" x="275" y="675" fill="hsl(233, 91%, 52%)"></use>
        <use xlink:href="#e" x="275" y="675" fill="hsl(247.3,100%,68.08%)"></use>
        <use xlink:href="#f" x="275" y="675" fill="hsl(240,100%,37.58%)"></use>
    </g>
    <g transform="translate(100 -50)">
        <use xlink:href="#d" x="275" y="625" fill="hsl(233, 91%, 52%)"></use>
        <use xlink:href="#e" x="275" y="625" fill="hsl(247.3,100%,68.08%)"></use>
        <use xlink:href="#f" x="275" y="625" fill="hsl(240,100%,37.58%)"></use>
    </g>
    <g transform="translate(100 -50)">
        <use xlink:href="#d" x="275" y="575" fill="hsl(233, 91%, 52%)"></use>
        <use xlink:href="#e" x="275" y="575" fill="hsl(247.3,100%,68.08%)"></use>
        <use xlink:href="#f" x="275" y="575" fill="hsl(240,100%,37.58%)"></use>
    </g>
    <g transform="translate(100 -50)">
        <use xlink:href="#d" x="275" y="525" fill="hsl(233, 91%, 52%)"></use>
        <use xlink:href="#e" x="275" y="525" fill="hsl(247.3,100%,68.08%)"></use>
        <use xlink:href="#f" x="275" y="525" fill="hsl(240,100%,37.58%)"></use>
    </g>
    <g transform="translate(100 -50)">
        <use xlink:href="#d" x="275" y="475" fill="hsl(233, 91%, 52%)"></use>
        <use xlink:href="#e" x="275" y="475" fill="hsl(247.3,100%,68.08%)"></use>
        <use xlink:href="#f" x="275" y="475" fill="hsl(240,100%,37.58%)"></use>
    </g>
    <g transform="translate(100 -50)">
        <use xlink:href="#d" x="275" y="425" fill="hsl(233, 91%, 52%)"></use>
        <use xlink:href="#e" x="275" y="425" fill="hsl(247.3,100%,68.08%)"></use>
        <use xlink:href="#f" x="275" y="425" fill="hsl(240,100%,37.58%)"></use>
    </g>
    <g transform="translate(100 -50)">
        <use xlink:href="#d" x="275" y="375" fill="hsl(233, 91%, 52%)"></use>
        <use xlink:href="#e" x="275" y="375" fill="hsl(247.3,100%,68.08%)"></use>
        <use xlink:href="#f" x="275" y="375" fill="hsl(240,100%,37.58%)"></use>
    </g>
    <g transform="translate(100 -50)">
        <use xlink:href="#d" x="325" y="400" fill="hsl(233, 91%, 52%)"></use>
        <use xlink:href="#e" x="325" y="400" fill="hsl(247.3,100%,68.08%)"></use>
        <use xlink:href="#f" x="325" y="400" fill="hsl(240,100%,37.58%)"></use>
    </g>
    <g transform="translate(100 -50)">
        <use xlink:href="#d" x="375" y="425" fill="hsl(233, 91%, 52%)"></use>
        <use xlink:href="#e" x="375" y="425" fill="hsl(247.3,100%,68.08%)"></use>
        <use xlink:href="#f" x="375" y="425" fill="hsl(240,100%,37.58%)"></use>
    </g>
    <g transform="translate(100 -50)">
        <use xlink:href="#d" x="325" y="525" fill="hsl(233, 91%, 52%)"></use>
        <use xlink:href="#e" x="325" y="525" fill="hsl(247.3,100%,68.08%)"></use>
        <use xlink:href="#f" x="325" y="525" fill="hsl(240,100%,37.58%)"></use>
    </g>
    <use xlink:href="#g" x="562.5" y="712.5" fill="hsl(154, 66%, 51%)"></use>
    <use xlink:href="#h" x="562.5" y="712.5" fill="hsl(152.29,100%,72.18%)"></use>
    <use xlink:href="#i" x="562.5" y="712.5" fill="hsl(155.15,100%,31.86%)"></use>
    <use xlink:href="#g" x="562.5" y="675" fill="hsl(154, 66%, 51%)"></use>
    <use xlink:href="#h" x="562.5" y="675" fill="hsl(152.29,100%,72.18%)"></use>
    <use xlink:href="#i" x="562.5" y="675" fill="hsl(155.15,100%,31.86%)"></use>
    <use xlink:href="#g" x="562.5" y="637.5" fill="hsl(154, 66%, 51%)"></use>
    <use xlink:href="#h" x="562.5" y="637.5" fill="hsl(152.29,100%,72.18%)"></use>
    <use xlink:href="#i" x="562.5" y="637.5" fill="hsl(155.15,100%,31.86%)"></use>
    <g>
        <use xlink:href="#g" x="562.5" y="600" fill="hsl(154, 66%, 51%)"></use>
        <use xlink:href="#h" x="562.5" y="600" fill="hsl(152.29,100%,72.18%)"></use>
        <use xlink:href="#i" x="562.5" y="600" fill="hsl(155.15,100%,31.86%)"></use>
    </g>
    <g>
        <use xlink:href="#g" x="562.5" y="562.5" fill="hsl(154, 66%, 51%)"></use>
        <use xlink:href="#h" x="562.5" y="562.5" fill="hsl(152.29,100%,72.18%)"></use>
        <use xlink:href="#i" x="562.5" y="562.5" fill="hsl(155.15,100%,31.86%)"></use>
    </g>
    <g>
        <use xlink:href="#g" x="562.5" y="525" fill="hsl(154, 66%, 51%)"></use>
        <use xlink:href="#h" x="562.5" y="525" fill="hsl(152.29,100%,72.18%)"></use>
        <use xlink:href="#i" x="562.5" y="525" fill="hsl(155.15,100%,31.86%)"></use>
    </g>
    <g>
        <use xlink:href="#g" x="600" y="543.75" fill="hsl(154, 66%, 51%)"></use>
        <use xlink:href="#h" x="600" y="543.75" fill="hsl(152.29,100%,72.18%)"></use>
        <use xlink:href="#i" x="600" y="543.75" fill="hsl(155.15,100%,31.86%)"></use>
    </g>
    <g>
        <use xlink:href="#g" x="637.5" y="562.5" fill="hsl(154, 66%, 51%)"></use>
        <use xlink:href="#h" x="637.5" y="562.5" fill="hsl(152.29,100%,72.18%)"></use>
        <use xlink:href="#i" x="637.5" y="562.5" fill="hsl(155.15,100%,31.86%)"></use>
    </g>
    <g>
        <use xlink:href="#g" x="600" y="637.5" fill="hsl(154, 66%, 51%)"></use>
        <use xlink:href="#h" x="600" y="637.5" fill="hsl(152.29,100%,72.18%)"></use>
        <use xlink:href="#i" x="600" y="637.5" fill="hsl(155.15,100%,31.86%)"></use>
    </g>
</g>
<symbol id="a">
    <path d="M0 37.5 75 0l75 37.5L75 75z"></path>
</symbol>
<symbol id="b">
    <path d="M0 37.5 75 75v75L0 112.5z"></path>
</symbol>
<symbol id="c">
    <path d="m75 75 75-37.5v75L75 150z"></path>
</symbol>
<symbol id="d">
    <path d="M0 25 50 0l50 25-50 25z"></path>
</symbol>
<symbol id="e">
    <path d="m0 25 50 25v50L0 75z"></path>
</symbol>
<symbol id="f">
    <path d="m50 50 50-25v50l-50 25z"></path>
</symbol>
<symbol id="g">
    <path d="M0 18.75 37.5 0 75 18.75 37.5 37.5z"></path>
</symbol>
<symbol id="h">
    <path d="M0 18.75 37.5 37.5V75L0 56.25z"></path>
</symbol>
<symbol id="i">
    <path d="M37.5 37.5 75 18.75v37.5L37.5 75z"></path>
</symbol>
</svg>